<?xml version="1.0" encoding="utf-8"?>
<!-- Generator: Adobe Illustrator 25.0.1, SVG Export Plug-In . SVG Version: 6.00 Build 0)  -->
<svg version="1.1" id="Capa_1" xmlns="http://www.w3.org/2000/svg" xmlns:xlink="http://www.w3.org/1999/xlink" x="0px" y="0px"
	 viewBox="0 0 1024 768" style="enable-background:new 0 0 1024 768;" xml:space="preserve">
<style type="text/css">
	.st0{fill:#61ADF0;}
	.st1{fill:#FFFFFF;}
	.st2{fill:#DC2427;}
	.st3{fill:none;stroke:#000000;stroke-miterlimit:10;}
</style>
<g id="Capa_1_1_">
	<g id="_x38_TJq8P.tif">
		
			<image style="overflow:visible;enable-background:new    ;" width="184" height="54" id="Layer_0_4_" xlink:href="DBCFBD754E89EB85.png"  transform="matrix(4.0008 0 0 4.0008 123.4298 -407.1893)">
		</image>
	</g>
</g>
<text transform="matrix(1 0 0 1 1007.996 -299.1687)" style="font-family:'AGaramondPro-Regular'; font-size:142.3283px; letter-spacing:2;">Lino`s</text>
<text transform="matrix(1 0 0 1 1008.3788 -252.155)" style="font-family:'Bitter-Bold'; font-size:36.4526px;">BANQUETES JAPONESES</text>
<rect x="106.9" y="200.2" width="367.6" height="367.6"/>
<path class="st0" d="M156.5,369.3c0-5.7-0.1-6.6-3.5-6.8l-1.4-0.1c-0.3-0.2-0.2-1.2,0.1-1.4c3,0.1,4.9,0.2,7.1,0.2
	c2.1,0,4,0,6.7-0.2c0.3,0.2,0.4,1.1,0.1,1.4l-1.3,0.1c-3.2,0.3-3.3,1.1-3.3,6.8v18.9c0,3.4,0.2,4.8,1.1,5.9c0.6,0.6,1.6,1.3,5.9,1.3
	c4.6,0,5.8-0.2,6.6-0.7c1.1-0.6,2.5-2.6,3.6-5.4c0.3-0.3,1.4,0,1.4,0.3c0,0.6-1.5,6.2-2.3,7.6c-2.8-0.1-8-0.2-13.5-0.2h-5
	c-2.3,0-4,0-7.1,0.2c-0.3-0.2-0.4-1-0.1-1.4l1.6-0.2c3.2-0.3,3.3-1.1,3.3-6.8L156.5,369.3L156.5,369.3z"/>
<path class="st0" d="M190.3,379.9c0-2.3,0-2.6-1.6-3.7l-0.5-0.3c-0.2-0.2-0.2-0.9,0.1-1.1c1.4-0.5,4.8-2,6.1-2.9
	c0.3,0,0.5,0.1,0.6,0.3c-0.1,2.1-0.2,4.9-0.2,7.4v10.7c0,4.3,0.1,4.9,2.2,5.2l1.3,0.2c0.4,0.3,0.3,1.3-0.1,1.5
	c-1.8-0.1-3.5-0.2-5.6-0.2c-2.1,0-3.9,0.1-5.6,0.2c-0.4-0.2-0.5-1.2-0.1-1.5l1.3-0.2c2.2-0.3,2.2-0.9,2.2-5.2L190.3,379.9
	L190.3,379.9z M195.2,363c0,2.1-1.5,3.1-3.2,3.1c-1.8,0-3-1.4-3-3c0-2,1.4-3.2,3.2-3.2C194,359.9,195.2,361.3,195.2,363z"/>
<path class="st0" d="M205.7,379.9c0-2.3,0-2.6-1.6-3.7l-0.5-0.3c-0.2-0.2-0.2-0.9,0.1-1.1c1.4-0.5,4.8-2,5.9-2.9
	c0.2,0,0.5,0.1,0.6,0.4c-0.1,1.4-0.1,2.2-0.1,2.8c0,0.3,0.2,0.6,0.6,0.6c2.5-1.6,5.3-3,8.3-3c4.9,0,7,3.4,7,7.4v10.2
	c0,4.3,0.1,4.9,2.2,5.2l1.3,0.2c0.4,0.3,0.3,1.3-0.1,1.5c-1.8-0.1-3.5-0.2-5.6-0.2c-2.1,0-3.9,0.1-5.5,0.2c-0.4-0.2-0.5-1.2-0.1-1.5
	l1.1-0.2c2.2-0.3,2.2-0.9,2.2-5.2v-8.9c0-3.4-1.6-5.9-5.6-5.9c-2.2,0-4.2,1-5.1,2.1c-0.8,1-0.9,1.8-0.9,3.6v9.1
	c0,4.3,0.1,4.8,2.2,5.2l1.1,0.2c0.4,0.3,0.3,1.3-0.1,1.5c-1.6-0.1-3.3-0.2-5.4-0.2c-2.1,0-3.9,0.1-5.6,0.2c-0.4-0.2-0.5-1.2-0.1-1.5
	l1.3-0.2c2.2-0.3,2.2-0.9,2.2-5.2V379.9z"/>
<path class="st0" d="M256.1,385c0,7.4-5.1,12.8-12.5,12.8c-6.8,0-12.2-4.8-12.2-12.3c0-7.5,5.6-12.8,12.7-12.8
	C250.7,372.7,256.1,377.7,256.1,385z M243.4,374.5c-3.9,0-6.8,3.7-6.8,10.3c0,5.4,2.4,11.2,7.6,11.2c5.2,0,6.8-5.5,6.8-10
	C251,381,249,374.5,243.4,374.5z"/>
<path class="st0" d="M265.7,379.4c-0.5,0.7-1.8,0.3-2.2,0l-1.8-15.8c-0.2-1.6-0.1-2.6,0.3-3.2c0.4-0.6,1.3-0.9,2.7-1.1
	c1.6-0.1,2.7,0.2,3.2,0.5c0.7,0.5,0.7,1.6,0.5,3L265.7,379.4z"/>
<path class="st0" d="M289,373.8c0.5,1.3,1,3.2,1,4.8c-0.2,0.4-1.1,0.5-1.4,0.2c-1-2.6-2.8-4.3-5.2-4.3c-2.3,0-3.8,1.5-3.8,3.6
	c0,2.4,2.5,3.7,4.6,4.9c3.2,1.8,6.1,3.8,6.1,8c0,4.5-4.1,6.8-8.6,6.8c-2.8,0-4.9-0.6-6.4-1.8c-0.5-1.1-0.8-4-0.7-6
	c0.3-0.3,1.1-0.4,1.4-0.1c1,3.3,2.9,6.1,6.3,6.1c2.1,0,4-1.3,4-3.8c0-2.7-2.4-4.2-4.6-5.5c-3.5-2-5.9-4-5.9-7.3
	c0-4.3,3.6-6.8,8.1-6.8C286.3,372.7,288.4,373.3,289,373.8z"/>
<g>
	<path class="st1" d="M159.4,409.6c0,1.1-0.5,1.8-1.6,2.2c1.2,0.3,1.9,1.1,1.9,2.1c0,1.9-1.3,2.7-3.4,2.7h-4.1v-1.1l1-0.4V409
		l-1-0.4v-1.1l3-0.1h1.4C158.2,407.4,159.4,408.1,159.4,409.6z M155.9,411.2c1,0,1.5-0.4,1.5-1.2c0-0.7-0.5-1-1.1-1h-1.1v2.2H155.9
		L155.9,411.2z M155.1,415h1.1c0.9,0,1.4-0.4,1.4-1.1c0-1-0.5-1.4-1.7-1.4h-0.8L155.1,415L155.1,415z"/>
	<path class="st1" d="M170.2,415.5v1.1h-4.1v-1.1l1-0.3l-0.3-1h-2.9l-0.3,1l1,0.4v1.1h-4v-1.1l1-0.4l2.9-7.7l2.1,0l2.8,7.8
		L170.2,415.5z M166.3,412.8l-1-3.1l-1,3.1H166.3z"/>
	<path class="st1" d="M170.8,416.6v-1.1l1-0.4V409l-1-0.4v-1.1l3.2-0.1l3.5,6.1V409l-1-0.4v-1.1l3.7-0.1v1.2l-1,0.4v7.6h-2.2
		l-3.5-5.9v4.4l1,0.4v1.1L170.8,416.6L170.8,416.6z"/>
	<path class="st1" d="M181.7,412.1c0-3,1.7-4.8,4.4-4.8c2.7,0,4.1,1.7,4.1,4.6c0,2.3-1,4-2.7,4.6c0.8,0.5,1.7,1.3,2.5,1.3
		c0.4,0,1.2-0.5,1.2-0.5c0.2,0.3,0.5,0.7,0.7,1.1c0,0-1.4,0.9-2.2,0.9c-0.6,0-1.1-0.3-1.7-0.7l-2.7-1.8
		C183,416.6,181.7,415,181.7,412.1z M183.8,412c0,2.1,0.6,3.2,2.1,3.2c1.5,0,2.2-1,2.2-3.2c0-2.1-0.6-3.1-2.1-3.1
		C184.5,408.9,183.8,409.8,183.8,412z"/>
	<path class="st1" d="M196.1,415.2c1.4,0,1.7-0.8,1.7-2.3V409l-1-0.4v-1.1l4-0.1v1.2l-1,0.4v3.9c0,2.5-1,3.9-3.8,3.9
		c-2.6,0-3.7-1.2-3.7-3.7V409l-1-0.4v-1.1l4-0.1v1.2l-1,0.4v4.1C194.4,414.6,194.8,415.2,196.1,415.2z"/>
	<path class="st1" d="M207.8,411.1v1.4h-2.7v2.5h2.4l0.3-1.1h1.2v2.7h-6.8v-1.1l1-0.4V409l-1-0.4v-1.1l3-0.1h3.7v2.5h-1.2l-0.3-1
		h-2.2v2.2L207.8,411.1L207.8,411.1z"/>
	<path class="st1" d="M212.9,415.1V409h-1.3l-0.3,1.3h-1.2v-2.8h7.6v2.8h-1.2l-0.3-1.3h-1.3v6.2l1.3,0.4v1.1h-4.5v-1.1L212.9,415.1z
		"/>
	<path class="st1" d="M224.4,411.1v1.4h-2.7v2.5h2.4l0.3-1.1h1.2v2.7h-6.8v-1.1l1-0.4V409l-1-0.4v-1.1l3-0.1h3.7v2.5h-1.2l-0.3-1
		h-2.2v2.2L224.4,411.1L224.4,411.1z"/>
	<path class="st1" d="M230.2,415.2c0.8,0,1.6-0.4,1.6-1.1c0-1.5-4.4-0.8-4.4-4.1c0-1.8,1.4-2.8,3.3-2.8c1.5,0,2.9,0.5,2.9,0.5
		l-0.1,2.4h-1.2l-0.3-1.1c0,0-0.6-0.2-1.1-0.2c-0.9,0-1.4,0.4-1.4,0.9c0,1.5,4.4,0.9,4.4,4c0,2-1.5,3-3.5,3c-1.5,0-2.9-0.5-2.9-0.5
		v-2.5h1.3l0.2,1.1C228.9,414.9,229.4,415.2,230.2,415.2z"/>
	<path class="st1" d="M238.7,418.7c-0.4,0-1-0.1-1-0.1l0.2-1.3h0.6c0.8,0,1.1-0.4,1.1-1.3v-7l-1-0.4v-1.1l4-0.1v1.2l-1,0.4v6.3
		C241.7,417.5,241.1,418.7,238.7,418.7z"/>
	<path class="st1" d="M253.2,415.5v1.1H249v-1.1l1-0.3l-0.3-1h-2.9l-0.3,1l1,0.4v1.1h-4v-1.1l1-0.4l2.9-7.7l2.1,0l2.8,7.8
		L253.2,415.5z M249.3,412.8l-1-3.1l-1,3.1H249.3z"/>
	<path class="st1" d="M253.7,416.6v-1.1l1-0.4V409l-1-0.4v-1.1l3-0.1h1.3c2,0,3.2,1.1,3.2,2.7c0,2.2-1.3,3.3-3.7,3.3h-0.7v1.7l1,0.4
		v1.1H253.7z M257.5,411.9c1.1,0,1.7-0.5,1.7-1.5c0-0.8-0.5-1.4-1.3-1.4h-1.1v2.9H257.5L257.5,411.9z"/>
	<path class="st1" d="M270.9,411.9c0,2.9-1.8,4.9-4.4,4.9s-4.1-1.6-4.1-4.7c0-3,1.7-4.8,4.3-4.8C269.4,407.2,270.9,409,270.9,411.9z
		 M264.7,412c0,2.2,0.6,3.2,1.9,3.2c1.3,0,2.1-0.8,2.1-3.2c0-2.2-0.6-3.1-2-3.1C265.4,408.9,264.7,409.7,264.7,412z"/>
	<path class="st1" d="M272.4,416.6v-1.1l1-0.4V409l-1-0.4v-1.1l3.2-0.1l3.5,6.1V409l-1-0.4v-1.1l3.7-0.1v1.2l-1,0.4v7.6h-2.2
		l-3.5-5.9v4.4l1,0.4v1.1L272.4,416.6L272.4,416.6z"/>
	<path class="st1" d="M288.7,411.1v1.4h-2.7v2.5h2.4l0.3-1.1h1.2v2.7h-6.8v-1.1l1-0.4V409l-1-0.4v-1.1l3-0.1h3.7v2.5h-1.1l-0.3-1
		h-2.2v2.2L288.7,411.1L288.7,411.1z"/>
	<path class="st1" d="M294.6,415.2c0.8,0,1.6-0.4,1.6-1.1c0-1.5-4.4-0.8-4.4-4.1c0-1.8,1.4-2.8,3.3-2.8c1.5,0,2.9,0.5,2.9,0.5
		l-0.1,2.4h-1.2l-0.3-1.1c0,0-0.6-0.2-1.1-0.2c-0.9,0-1.4,0.4-1.4,0.9c0,1.5,4.4,0.9,4.4,4c0,2-1.5,3-3.5,3c-1.5,0-2.9-0.5-2.9-0.5
		v-2.5h1.3l0.2,1.1C293.3,414.9,293.8,415.2,294.6,415.2z"/>
	<path class="st1" d="M305.4,411.1v1.4h-2.7v2.5h2.4l0.3-1.1h1.2v2.7h-6.8v-1.1l1-0.4V409l-1-0.4v-1.1l3-0.1h3.7v2.5h-1.2l-0.3-1
		h-2.2v2.2L305.4,411.1L305.4,411.1z"/>
	<path class="st1" d="M311.2,415.2c0.8,0,1.6-0.4,1.6-1.1c0-1.5-4.4-0.8-4.4-4.1c0-1.8,1.4-2.8,3.3-2.8c1.5,0,2.9,0.5,2.9,0.5
		l-0.1,2.4h-1.2l-0.3-1.1c0,0-0.6-0.2-1.1-0.2c-0.9,0-1.4,0.4-1.4,0.9c0,1.5,4.4,0.9,4.4,4c0,2-1.5,3-3.5,3c-1.5,0-2.9-0.5-2.9-0.5
		v-2.5h1.3l0.2,1.1C309.9,414.9,310.4,415.2,311.2,415.2z"/>
</g>
<circle class="st2" cx="365.4" cy="374.3" r="27"/>
<circle class="st1" cx="423.9" cy="361.9" r="6.3"/>
<circle class="st1" cx="423.9" cy="388.2" r="6.3"/>
<circle class="st1" cx="423.9" cy="414.4" r="6.3"/>
<rect x="549.4" y="200.2" class="st3" width="367.6" height="367.6"/>
<path class="st0" d="M599,369.3c0-5.7-0.1-6.6-3.5-6.8l-1.4-0.1c-0.3-0.2-0.2-1.2,0.1-1.4c3,0.1,4.9,0.2,7.1,0.2c2.1,0,4,0,6.7-0.2
	c0.3,0.2,0.4,1.1,0.1,1.4l-1.3,0.1c-3.2,0.3-3.3,1.1-3.3,6.8v18.9c0,3.4,0.2,4.8,1.1,5.9c0.6,0.6,1.6,1.3,5.9,1.3
	c4.6,0,5.8-0.2,6.6-0.7c1.1-0.6,2.5-2.6,3.6-5.4c0.3-0.3,1.4,0,1.4,0.3c0,0.6-1.5,6.2-2.3,7.6c-2.8-0.1-8-0.2-13.5-0.2h-5
	c-2.3,0-4,0-7.1,0.2c-0.3-0.2-0.4-1-0.1-1.4l1.6-0.2c3.2-0.3,3.3-1.1,3.3-6.8V369.3L599,369.3z"/>
<path class="st0" d="M632.8,379.9c0-2.3,0-2.6-1.6-3.7l-0.5-0.3c-0.2-0.2-0.2-0.9,0.1-1.1c1.4-0.5,4.8-2,6.1-2.9
	c0.3,0,0.5,0.1,0.6,0.3c-0.1,2.1-0.2,4.9-0.2,7.4v10.7c0,4.3,0.1,4.9,2.2,5.2l1.3,0.2c0.4,0.3,0.3,1.3-0.1,1.5
	c-1.8-0.1-3.5-0.2-5.6-0.2c-2.1,0-3.9,0.1-5.6,0.2c-0.4-0.2-0.5-1.2-0.1-1.5l1.3-0.2c2.2-0.3,2.2-0.9,2.2-5.2L632.8,379.9
	L632.8,379.9z M637.7,363c0,2.1-1.5,3.1-3.2,3.1c-1.8,0-3-1.4-3-3c0-2,1.4-3.2,3.2-3.2C636.5,359.9,637.7,361.3,637.7,363z"/>
<path class="st0" d="M648.2,379.9c0-2.3,0-2.6-1.6-3.7l-0.5-0.3c-0.2-0.2-0.2-0.9,0.1-1.1c1.4-0.5,4.8-2,5.9-2.9
	c0.2,0,0.5,0.1,0.6,0.4c-0.1,1.4-0.1,2.2-0.1,2.8c0,0.3,0.2,0.6,0.6,0.6c2.5-1.6,5.3-3,8.3-3c4.9,0,7,3.4,7,7.4v10.2
	c0,4.3,0.1,4.9,2.2,5.2l1.3,0.2c0.4,0.3,0.3,1.3-0.1,1.5c-1.8-0.1-3.5-0.2-5.6-0.2c-2.1,0-3.9,0.1-5.5,0.2c-0.4-0.2-0.5-1.2-0.1-1.5
	l1.1-0.2c2.2-0.3,2.2-0.9,2.2-5.2v-8.9c0-3.4-1.6-5.9-5.6-5.9c-2.2,0-4.2,1-5.1,2.1c-0.8,1-0.9,1.8-0.9,3.6v9.1
	c0,4.3,0.1,4.8,2.2,5.2l1.1,0.2c0.4,0.3,0.3,1.3-0.1,1.5c-1.6-0.1-3.3-0.2-5.4-0.2c-2.1,0-3.9,0.1-5.6,0.2c-0.4-0.2-0.5-1.2-0.1-1.5
	l1.3-0.2c2.2-0.3,2.2-0.9,2.2-5.2V379.9z"/>
<path class="st0" d="M698.6,385c0,7.4-5.1,12.8-12.5,12.8c-6.8,0-12.2-4.8-12.2-12.3c0-7.5,5.6-12.8,12.7-12.8
	C693.2,372.7,698.6,377.7,698.6,385z M685.9,374.5c-3.9,0-6.8,3.7-6.8,10.3c0,5.4,2.4,11.2,7.6,11.2c5.2,0,6.8-5.5,6.8-10
	C693.5,381,691.5,374.5,685.9,374.5z"/>
<path class="st0" d="M708.2,379.4c-0.5,0.7-1.8,0.3-2.2,0l-1.8-15.8c-0.2-1.6-0.1-2.6,0.3-3.2c0.4-0.6,1.3-0.9,2.7-1.1
	c1.6-0.1,2.7,0.2,3.2,0.5c0.7,0.5,0.7,1.6,0.5,3L708.2,379.4z"/>
<path class="st0" d="M731.4,373.8c0.5,1.3,1,3.2,1,4.8c-0.2,0.4-1.1,0.5-1.4,0.2c-1-2.6-2.8-4.3-5.2-4.3c-2.3,0-3.8,1.5-3.8,3.6
	c0,2.4,2.5,3.7,4.6,4.9c3.2,1.8,6.1,3.8,6.1,8c0,4.5-4.1,6.8-8.6,6.8c-2.8,0-4.9-0.6-6.4-1.8c-0.5-1.1-0.8-4-0.7-6
	c0.3-0.3,1.1-0.4,1.4-0.1c1,3.3,2.9,6.1,6.3,6.1c2.1,0,4-1.3,4-3.8c0-2.7-2.4-4.2-4.6-5.5c-3.5-2-5.9-4-5.9-7.3
	c0-4.3,3.6-6.8,8.1-6.8C728.7,372.7,730.9,373.3,731.4,373.8z"/>
<g>
	<path d="M601.8,409.6c0,1.1-0.5,1.8-1.6,2.2c1.2,0.3,1.9,1.1,1.9,2.1c0,1.9-1.3,2.7-3.4,2.7h-4.1v-1.1l1-0.4V409l-1-0.4v-1.1l3-0.1
		h1.4C600.7,407.4,601.8,408.1,601.8,409.6z M598.3,411.2c1,0,1.5-0.4,1.5-1.2c0-0.7-0.5-1-1.1-1h-1.1v2.2H598.3L598.3,411.2z
		 M597.6,415h1.1c0.9,0,1.4-0.4,1.4-1.1c0-1-0.5-1.4-1.7-1.4h-0.8L597.6,415L597.6,415z"/>
	<path d="M612.7,415.5v1.1h-4.1v-1.1l1-0.3l-0.3-1h-2.9l-0.3,1l1,0.4v1.1h-4v-1.1l1-0.4l2.9-7.7l2.1,0l2.8,7.8L612.7,415.5z
		 M608.8,412.8l-1-3.1l-1,3.1H608.8z"/>
	<path d="M613.3,416.6v-1.1l1-0.4V409l-1-0.4v-1.1l3.2-0.1l3.5,6.1V409l-1-0.4v-1.1l3.7-0.1v1.2l-1,0.4v7.6h-2.2l-3.5-5.9v4.4l1,0.4
		v1.1L613.3,416.6L613.3,416.6z"/>
	<path d="M624.1,412.1c0-3,1.7-4.8,4.4-4.8c2.7,0,4.1,1.7,4.1,4.6c0,2.3-1,4-2.7,4.6c0.8,0.5,1.7,1.3,2.5,1.3c0.4,0,1.2-0.5,1.2-0.5
		c0.2,0.3,0.5,0.7,0.7,1.1c0,0-1.4,0.9-2.2,0.9c-0.6,0-1.1-0.3-1.7-0.7l-2.7-1.8C625.5,416.6,624.1,415,624.1,412.1z M626.3,412
		c0,2.1,0.6,3.2,2.1,3.2c1.5,0,2.2-1,2.2-3.2c0-2.1-0.6-3.1-2.1-3.1C627,408.9,626.3,409.8,626.3,412z"/>
	<path d="M638.6,415.2c1.4,0,1.7-0.8,1.7-2.3V409l-1-0.4v-1.1l4-0.1v1.2l-1,0.4v3.9c0,2.5-1,3.9-3.8,3.9c-2.6,0-3.7-1.2-3.7-3.7V409
		l-1-0.4v-1.1l4-0.1v1.2l-1,0.4v4.1C636.9,414.6,637.3,415.2,638.6,415.2z"/>
	<path d="M650.3,411.1v1.4h-2.7v2.5h2.4l0.3-1.1h1.2v2.7h-6.8v-1.1l1-0.4V409l-1-0.4v-1.1l3-0.1h3.7v2.5h-1.2l-0.3-1h-2.2v2.2
		L650.3,411.1L650.3,411.1z"/>
	<path d="M655.4,415.1V409h-1.3l-0.3,1.3h-1.2v-2.8h7.6v2.8H659l-0.3-1.3h-1.3v6.2l1.3,0.4v1.1h-4.5v-1.1L655.4,415.1z"/>
	<path d="M666.9,411.1v1.4h-2.7v2.5h2.4l0.3-1.1h1.2v2.7h-6.8v-1.1l1-0.4V409l-1-0.4v-1.1l3-0.1h3.7v2.5h-1.2l-0.3-1h-2.2v2.2
		L666.9,411.1L666.9,411.1z"/>
	<path d="M672.7,415.2c0.8,0,1.6-0.4,1.6-1.1c0-1.5-4.4-0.8-4.4-4.1c0-1.8,1.4-2.8,3.3-2.8c1.5,0,2.9,0.5,2.9,0.5l-0.1,2.4h-1.2
		l-0.3-1.1c0,0-0.6-0.2-1.1-0.2c-0.9,0-1.4,0.4-1.4,0.9c0,1.5,4.4,0.9,4.4,4c0,2-1.5,3-3.5,3c-1.5,0-2.9-0.5-2.9-0.5v-2.5h1.3
		l0.2,1.1C671.4,414.9,671.9,415.2,672.7,415.2z"/>
	<path d="M681.2,418.7c-0.4,0-1-0.1-1-0.1l0.2-1.3h0.6c0.8,0,1.1-0.4,1.1-1.3v-7l-1-0.4v-1.1l4-0.1v1.2l-1,0.4v6.3
		C684.2,417.5,683.5,418.7,681.2,418.7z"/>
	<path d="M695.7,415.5v1.1h-4.1v-1.1l1-0.3l-0.3-1h-2.9l-0.3,1l1,0.4v1.1h-4v-1.1l1-0.4l2.9-7.7l2.1,0l2.8,7.8L695.7,415.5z
		 M691.8,412.8l-1-3.1l-1,3.1H691.8z"/>
	<path d="M696.2,416.6v-1.1l1-0.4V409l-1-0.4v-1.1l3-0.1h1.3c2,0,3.2,1.1,3.2,2.7c0,2.2-1.3,3.3-3.7,3.3h-0.7v1.7l1,0.4v1.1H696.2z
		 M699.9,411.9c1.1,0,1.7-0.5,1.7-1.5c0-0.8-0.5-1.4-1.3-1.4h-1.1v2.9H699.9L699.9,411.9z"/>
	<path d="M713.4,411.9c0,2.9-1.8,4.9-4.4,4.9s-4.1-1.6-4.1-4.7c0-3,1.7-4.8,4.3-4.8C711.9,407.2,713.4,409,713.4,411.9z M707.2,412
		c0,2.2,0.6,3.2,1.9,3.2c1.3,0,2.1-0.8,2.1-3.2c0-2.2-0.6-3.1-2-3.1C707.9,408.9,707.2,409.7,707.2,412z"/>
	<path d="M714.9,416.6v-1.1l1-0.4V409l-1-0.4v-1.1l3.2-0.1l3.5,6.1V409l-1-0.4v-1.1l3.7-0.1v1.2l-1,0.4v7.6h-2.2l-3.5-5.9v4.4l1,0.4
		v1.1L714.9,416.6L714.9,416.6z"/>
	<path d="M731.2,411.1v1.4h-2.7v2.5h2.4l0.3-1.1h1.2v2.7h-6.8v-1.1l1-0.4V409l-1-0.4v-1.1l3-0.1h3.7v2.5h-1.1l-0.3-1h-2.2v2.2
		L731.2,411.1L731.2,411.1z"/>
	<path d="M737,415.2c0.8,0,1.6-0.4,1.6-1.1c0-1.5-4.4-0.8-4.4-4.1c0-1.8,1.4-2.8,3.3-2.8c1.5,0,2.9,0.5,2.9,0.5l-0.1,2.4h-1.2
		l-0.3-1.1c0,0-0.6-0.2-1.1-0.2c-0.9,0-1.4,0.4-1.4,0.9c0,1.5,4.4,0.9,4.4,4c0,2-1.5,3-3.5,3c-1.5,0-2.9-0.5-2.9-0.5v-2.5h1.3
		l0.2,1.1C735.7,414.9,736.3,415.2,737,415.2z"/>
	<path d="M747.9,411.1v1.4h-2.7v2.5h2.4l0.3-1.1h1.2v2.7h-6.8v-1.1l1-0.4V409l-1-0.4v-1.1l3-0.1h3.7v2.5h-1.2l-0.3-1h-2.2v2.2
		L747.9,411.1L747.9,411.1z"/>
	<path d="M753.7,415.2c0.8,0,1.6-0.4,1.6-1.1c0-1.5-4.4-0.8-4.4-4.1c0-1.8,1.4-2.8,3.3-2.8c1.5,0,2.9,0.5,2.9,0.5l-0.1,2.4h-1.2
		l-0.3-1.1c0,0-0.6-0.2-1.1-0.2c-0.9,0-1.4,0.4-1.4,0.9c0,1.5,4.4,0.9,4.4,4c0,2-1.5,3-3.5,3c-1.5,0-2.9-0.5-2.9-0.5v-2.5h1.3
		l0.2,1.1C752.4,414.9,752.9,415.2,753.7,415.2z"/>
</g>
<circle class="st2" cx="807.9" cy="374.3" r="27"/>
<circle cx="866.3" cy="361.9" r="6.3"/>
<circle cx="866.3" cy="388.2" r="6.3"/>
<circle cx="866.3" cy="414.4" r="6.3"/>
</svg>
