<svg xmlns="http://www.w3.org/2000/svg" viewBox="0 0 732.49 193"><defs><style>.cls-1{fill:#61adf0;}.cls-2{fill:#fff;}.cls-3{fill:#dc2427;}</style></defs><g id="Capa_2" data-name="Capa 2"><g id="Capa_3" data-name="Capa 3"><path class="cls-1" d="M13.39,57.88c0-15-.29-17.3-9.3-18L.52,39.57C-.34,39,0,36.43.8,36c8,.29,12.87.43,18.59.43S29.83,36.29,37,36c.86.43,1.15,3,.29,3.57l-3.43.29c-8.44.72-8.73,3-8.73,18v49.76c0,9,.43,12.73,3,15.45,1.57,1.57,4.29,3.28,15.58,3.28,12.16,0,15.16-.57,17.45-1.85,2.86-1.72,6.58-6.87,9.44-14.16.85-.72,3.57-.14,3.57.86,0,1.57-4,16.16-6,20-7.3-.29-20.88-.43-35.61-.43H19.39c-6,0-10.58.14-18.59.43-.85-.43-1.14-2.72-.28-3.58l4.29-.43c8.29-.86,8.58-2.86,8.58-17.87Z"/><path class="cls-1" d="M102.15,85.82c0-6.09,0-6.87-4.22-9.69l-1.4-.93c-.63-.63-.63-2.34.15-2.81a107.62,107.62,0,0,0,16.09-7.65,1.44,1.44,0,0,1,1.56.93c-.32,5.47-.63,13-.63,19.36v28.11c0,11.24.31,12.8,5.94,13.58l3.27.47c1.1.78.78,3.43-.31,3.9-4.68-.31-9.21-.47-14.67-.47-5.63,0-10.31.16-14.68.47-1.09-.47-1.41-3.12-.31-3.9l3.28-.47c5.77-.78,5.93-2.34,5.93-13.58Zm13-44.5c0,5.62-3.91,8.12-8.28,8.12a7.67,7.67,0,0,1-8-7.81,8.12,8.12,0,0,1,8.43-8.43A7.8,7.8,0,0,1,115.11,41.32Z"/><path class="cls-1" d="M142.7,85.82c0-6.09,0-6.87-4.21-9.69l-1.41-.93c-.62-.63-.62-2.34.16-2.81,3.59-1.25,12.49-5.31,15.61-7.65a1.82,1.82,0,0,1,1.72,1.09c-.31,3.59-.31,5.93-.31,7.34A1.64,1.64,0,0,0,156,74.89c6.55-4.06,13.89-8,21.85-8,13,0,18.27,8.9,18.27,19.36v26.86c0,11.24.31,12.8,5.93,13.58l3.44.47c1.09.78.78,3.43-.31,3.9-4.69-.31-9.22-.47-14.68-.47-5.62,0-10.3.16-14.52.47-1.09-.47-1.41-3.12-.31-3.9l3-.47c5.78-.94,5.94-2.34,5.94-13.58V89.87c0-8.89-4.06-15.45-14.68-15.45-5.93,0-11.08,2.5-13.27,5.46-2,2.66-2.34,4.84-2.34,9.37v23.89c0,11.24.31,12.64,5.93,13.58l2.81.47c1.09.78.78,3.43-.31,3.9-4.22-.31-8.74-.47-14.21-.47s-10.3.16-14.67.47c-1.1-.47-1.41-3.12-.32-3.9l3.28-.47c5.78-.78,5.93-2.34,5.93-13.58Z"/><path class="cls-1" d="M275.21,99.24c0,19.52-13.42,33.57-32.94,33.57-18,0-32-12.65-32-32.16,0-19.67,14.83-33.73,33.25-33.73C261,66.92,275.21,80,275.21,99.24ZM241.65,71.61c-10.31,0-18,9.83-18,27,0,14.2,6.4,29.51,20.14,29.51s18-14.37,18-26.39C261.79,88.47,256.48,71.61,241.65,71.61Z"/><path class="cls-1" d="M300.37,84.41c-1.26,1.9-4.69.85-5.69-.12l-4.6-41.62c-.47-4.26-.17-6.79.95-8.48,1-1.48,3.44-2.28,7.13-2.87,4.26-.21,7.11.46,8.45,1.35,1.91,1.26,1.85,4.26,1.18,7.76Z"/><path class="cls-1" d="M361.52,69.73A36.38,36.38,0,0,1,364,82.38c-.62,1.09-3,1.41-3.75.47-2.65-6.87-7.33-11.4-13.74-11.4-6.08,0-10,3.9-10,9.53,0,6.4,6.56,9.83,12,13,8.28,4.69,15.93,10,15.93,21.08,0,11.87-10.93,17.8-22.48,17.8-7.34,0-12.81-1.56-16.71-4.68-1.25-3-2.18-10.62-1.87-15.77a2.64,2.64,0,0,1,3.59-.16c2.65,8.59,7.65,16.08,16.55,16.08,5.62,0,10.46-3.28,10.46-10,0-7.18-6.25-11.09-12-14.36-9.06-5.16-15.46-10.62-15.46-19.21,0-11.39,9.37-17.8,21.23-17.8C354.34,66.92,360.12,68.49,361.52,69.73Z"/><path class="cls-2" d="M20.86,163.93a5.4,5.4,0,0,1-4.13,5.68c3.24.93,4.93,2.86,4.93,5.51,0,5-3.38,7.12-8.95,7.12H1.77v-2.93l2.58-1V162.11l-2.58-1v-2.93L9.68,158h3.61C17.77,158,20.86,159.87,20.86,163.93Zm-9.18,4c2.51,0,3.85-1.07,3.85-3.2,0-1.79-1.27-2.58-2.92-2.58H9.68v5.78Zm-2,10.22h2.86c2.41,0,3.68-1.1,3.68-3,0-2.52-1.45-3.62-4.54-3.62h-2Z"/><path class="cls-2" d="M49.53,179.31v2.93H38.59v-2.93l2.58-.93-.83-2.51H32.7l-.86,2.48,2.68,1v2.93H24.13v-2.93l2.51-1,7.58-20.27,5.5-.1,7.4,20.37Zm-10.32-7.12L36.62,164l-2.71,8.16Z"/><path class="cls-2" d="M51,182.24v-2.93l2.58-1V162.11l-2.58-1v-2.93l8.26-.17,9.29,15.9V162.11l-2.51-1v-2.93l9.81-.17v3.1l-2.58,1v20.13H67.49l-9.22-15.59v11.63l2.68,1v2.93Z"/><path class="cls-2" d="M79.5,170.3c0-7.85,4.47-12.73,11.6-12.73S102,162.11,102,169.78c0,5.95-2.72,10.36-7.16,12.08,2.07,1.31,4.54,3.3,6.64,3.3a9.41,9.41,0,0,0,3.17-1.2c.62.89,1.2,1.82,1.82,2.75,0,0-3.61,2.41-5.85,2.41a8.18,8.18,0,0,1-4.4-1.82l-7-4.68C83,182.2,79.5,178,79.5,170.3Zm5.68-.17c0,5.5,1.72,8.25,5.4,8.25,3.89,0,5.78-2.68,5.78-8.43,0-5.5-1.65-8.08-5.44-8.08S85.18,164.34,85.18,170.13Z"/><path class="cls-2" d="M117.49,178.45c3.65,0,4.44-2,4.44-6V162.11l-2.69-1v-2.93l10.6-.17v3.1l-2.58,1v10.32c0,6.64-2.54,10.22-9.94,10.22-6.92,0-9.67-3.06-9.67-9.7V162.11l-2.55-1v-2.93l10.56-.17v3.1l-2.68,1V173C113,176.9,114.12,178.45,117.49,178.45Z"/><path class="cls-2" d="M148.22,167.79v3.78h-6.95v6.54h6.16l.79-2.82h3.09v7h-18v-2.93l2.58-1V162.11l-2.58-1v-2.93l7.92-.17h9.63v6.64h-3.1l-.86-2.51h-5.67v5.68Z"/><path class="cls-2" d="M161.6,178.28V162.11h-3.27l-.86,3.27h-3.16V158h20v7.4h-3.2l-.86-3.27h-3.27v16.17l3.27,1v2.93H158.33v-2.93Z"/><path class="cls-2" d="M191.78,167.79v3.78h-6.95v6.54H191l.79-2.82h3.1v7h-18v-2.93l2.58-1V162.11l-2.58-1v-2.93l7.91-.17h9.64v6.64h-3.1l-.86-2.51h-5.68v5.68Z"/><path class="cls-2" d="M207.06,178.38c2.2,0,4.16-1,4.16-2.78,0-4-11.63-2.24-11.63-10.74,0-4.75,3.75-7.29,8.74-7.29a24.68,24.68,0,0,1,7.57,1.37l-.17,6.27h-3.16l-.87-2.93a10.94,10.94,0,0,0-3-.52c-2.45,0-3.65,1.07-3.65,2.45,0,4,11.6,2.41,11.6,10.49,0,5.16-4,8-9.3,8a26.86,26.86,0,0,1-7.67-1.31v-6.61h3.51l.52,2.89A7.87,7.87,0,0,0,207.06,178.38Z"/><path class="cls-2" d="M229.53,187.74a20.78,20.78,0,0,1-2.62-.24l.45-3.54H229c2.07,0,3-1.14,3-3.3V162.11l-2.58-1v-2.93L240,158v3.1l-2.58,1v16.48C237.38,184.58,235.59,187.74,229.53,187.74Z"/><path class="cls-2" d="M267.48,179.31v2.93H256.54v-2.93l2.58-.93-.82-2.51h-7.64l-.86,2.48,2.68,1v2.93H242.09v-2.93l2.51-1,7.57-20.27,5.51-.1,7.4,20.37Zm-10.32-7.12L254.58,164l-2.72,8.16Z"/><path class="cls-2" d="M268.93,182.24v-2.93l2.58-1V162.11l-2.58-1v-2.93l7.91-.17h3.27c5.27,0,8.37,2.75,8.37,7.23,0,5.78-3.55,8.6-9.81,8.6h-1.83v4.47l2.58,1v2.93Zm9.74-12.46c2.85,0,4.47-1.34,4.47-3.89,0-2.23-1.2-3.78-3.54-3.78h-2.76v7.67Z"/><path class="cls-2" d="M314,169.78c0,7.74-4.65,12.91-11.53,12.91s-10.67-4.31-10.67-12.39c0-7.92,4.37-12.73,11.36-12.73S314,162.11,314,169.78Zm-16.35.35c0,5.67,1.55,8.25,5,8.25s5.51-2.23,5.51-8.43c0-5.67-1.72-8.08-5.16-8.08S297.66,164,297.66,170.13Z"/><path class="cls-2" d="M317.86,182.24v-2.93l2.58-1V162.11l-2.58-1v-2.93l8.26-.17,9.29,15.9V162.11l-2.51-1v-2.93l9.81-.17v3.1l-2.58,1v20.13h-5.75l-9.22-15.59v11.63l2.68,1v2.93Z"/><path class="cls-2" d="M360.91,167.79v3.78h-7v6.54h6.16l.79-2.82H364v7H346v-2.93l2.58-1V162.11l-2.58-1v-2.93L354,158h9.63v6.64H360.5l-.86-2.51H354v5.68Z"/><path class="cls-2" d="M376.19,178.38c2.2,0,4.16-1,4.16-2.78,0-4-11.63-2.24-11.63-10.74,0-4.75,3.75-7.29,8.74-7.29a24.68,24.68,0,0,1,7.57,1.37l-.17,6.27h-3.17l-.86-2.93a11.05,11.05,0,0,0-3-.52c-2.44,0-3.64,1.07-3.64,2.45,0,4,11.59,2.41,11.59,10.49,0,5.16-4,8-9.29,8a26.77,26.77,0,0,1-7.67-1.31v-6.61h3.51l.52,2.89A7.87,7.87,0,0,0,376.19,178.38Z"/><path class="cls-2" d="M404.65,167.79v3.78h-7v6.54h6.16l.8-2.82h3.09v7h-18v-2.93l2.58-1V162.11l-2.58-1v-2.93l7.91-.17h9.64v6.64h-3.1l-.86-2.51h-5.68v5.68Z"/><path class="cls-2" d="M419.92,178.38c2.21,0,4.17-1,4.17-2.78,0-4-11.63-2.24-11.63-10.74,0-4.75,3.75-7.29,8.74-7.29a24.68,24.68,0,0,1,7.57,1.37l-.17,6.27h-3.17l-.86-2.93a11.05,11.05,0,0,0-3-.52c-2.44,0-3.65,1.07-3.65,2.45,0,4,11.6,2.41,11.6,10.49,0,5.16-4,8-9.29,8a26.88,26.88,0,0,1-7.68-1.31v-6.61H416l.51,2.89A7.92,7.92,0,0,0,419.92,178.38Z"/><circle class="cls-3" cx="562.49" cy="71" r="71"/><circle cx="715.99" cy="38.5" r="16.5"/><circle cx="715.99" cy="107.5" r="16.5"/><circle cx="715.99" cy="176.5" r="16.5"/></g></g></svg>